<svg xmlns="http://www.w3.org/2000/svg" width="170" height="128" viewBox="0 0 170 128">
  <title>Apollo upload logo</title>
  <path fill="#00BCDE" d="M159.279 71.787c0 10.343-8.4 18.725-18.76 18.725a18.702 18.702 0 0 1-11.05-3.592 25.824 25.824 0 0 1-11.593 2.731C103.587 89.651 92 78.089 92 63.827 92 49.562 103.586 38 117.876 38a25.887 25.887 0 0 1 23.54 15.084c9.943.468 17.863 8.662 17.863 18.703zm-22.101-17.569a21.576 21.576 0 0 0-19.302-11.905c-11.91 0-21.563 9.633-21.563 21.514 0 11.878 9.654 21.511 21.563 21.511 3.827 0 7.504-.994 10.746-2.856l1.323-.76 1.157.994a14.39 14.39 0 0 0 9.416 3.483c7.98 0 14.448-6.454 14.448-14.412 0-7.957-6.468-14.411-14.448-14.411-.15 0-.307.002-.476.007l-9.741.274 6.877-3.439z"/>
  <path fill="#0F2A4A" d="M112.424 74.382l-5.016-1.25 10.944-12.763 3.672 16.406-5.402-1.347c-.237.71-.473 1.41-.709 2.093-.261.759-.517 1.484-.765 2.17a78.792 78.792 0 0 1-1.437 3.728 50.767 50.767 0 0 1-10.925 16.218c-19.917 19.917-52.242 19.882-72.199-.075s-19.992-52.281-.074-72.199C49.256 8.62 78.985 7.546 99.057 24.114a5.384 5.384 0 0 1 2.094-.42 5.385 5.385 0 0 1 5.39 5.379c0 2.97-2.413 5.379-5.39 5.379a5.385 5.385 0 0 1-5.073-7.203C77.703 12.281 50.645 13.33 33.562 30.413c-18.231 18.232-18.2 47.826.075 66.1 18.274 18.274 47.868 18.306 66.1.074a46.455 46.455 0 0 0 10-14.842 74.75 74.75 0 0 0 1.355-3.518c.24-.666.489-1.371.744-2.111.195-.567.392-1.146.588-1.734zM72.092 41.448L87.23 80.651h-9.483L66.849 49.794l-6.127 16.868h9.419l2.589 7.348H58.427l-2.475 6.64H46.47l15.138-39.202h10.485z"/>
</svg>
